# xmcd
#
# Track frame offsets:
#	150
#	18939
#	35569
#	56832
#	73473
#	87631
#	101078
#	119983
#	139438
#	161437
#	174013
#	184266
#	196378
#	204191
#	215810
#	227924
#	240585
#
# Disc length: 3351 seconds
#
# Revision: 0
# Processed by: cddbd v1.5.2PL0 Copyright (c) Steve Scherf et al.
# Submitted via: EasyCDDAExtractor 16.0.6.1
#
DISCID=070d1511
DTITLE=Varios  - C-079 Transit-Music Country Internet Nº 3
DYEAR=1994
DGENRE=Country
TTITLE0=Alabama - Mountain Music
TTITLE1=Reba McEntire - The Night The Lights Went Out In Georgia
TTITLE2=Dixie Chicks - Cowboy Take Me Away
TTITLE3=Alabama - If You're Gonna Play In Texas
TTITLE4=Alabama - Born Country
TTITLE5=Clint Black - A Better Man
TTITLE6=Alabama - Roll On
TTITLE7=Shania Twain - Rock This Country
TTITLE8=Alabama - Dixieland Delight
TTITLE9=Alabama - I'm Hurry
TTITLE10=Kim Perry - Are There Any More At Lik
TTITLE11=Clint Black - A Good Run Of Bad Luck
TTITLE12=Luke Thomas - Rollin'
TTITLE13=Jeff Foxwort and Alan Jackson - Redneck Games
TTITLE14=Hank Williams - Honky Tonkin'
TTITLE15=Alan Jackson - Don't Rock The Jukebox
TTITLE16=Alan Jackson - Chattaoochee
EXTD=
EXTT0=
EXTT1=
EXTT2=
EXTT3=
EXTT4=
EXTT5=
EXTT6=
EXTT7=
EXTT8=
EXTT9=
EXTT10=
EXTT11=
EXTT12=
EXTT13=
EXTT14=
EXTT15=
EXTT16=
PLAYORDER=
